<svg width="627" height="324" viewBox="0 0 627 324" fill="none" xmlns="http://www.w3.org/2000/svg">
<path d="M60.16 160.92C49.7067 160.92 40.5333 158.52 32.64 153.72C24.7467 148.813 18.6133 142.04 14.24 133.4C9.86667 124.76 7.68 114.68 7.68 103.16C7.68 91.7467 9.86667 81.6667 14.24 72.92C18.72 64.1733 25.0133 57.3467 33.12 52.44C41.3333 47.5333 50.9867 45.08 62.08 45.08C74.6667 45.08 85.1733 48.12 93.6 54.2C102.027 60.1733 107.413 68.5467 109.76 79.32H94.24C92.7467 72.6 89.2267 67.2667 83.68 63.32C78.1333 59.3733 70.9333 57.4 62.08 57.4C53.8667 57.4 46.6667 59.2667 40.48 63C34.4 66.6267 29.7067 71.8533 26.4 78.68C23.0933 85.5067 21.44 93.6667 21.44 103.16C21.44 112.653 23.0933 120.867 26.4 127.8C29.7067 134.627 34.2933 139.853 40.16 143.48C46.1333 147.107 52.96 148.92 60.64 148.92C72.5867 148.92 81.6 145.4 87.68 138.36C93.76 131.32 97.2267 121.773 98.08 109.72H65.76V99.16H111.84V159H99.52L98.4 140.6C95.7333 144.973 92.64 148.707 89.12 151.8C85.7067 154.787 81.6533 157.08 76.96 158.68C72.2667 160.173 66.6667 160.92 60.16 160.92ZM125.25 159V47H161.41C170.157 47 177.303 48.4933 182.85 51.48C188.397 54.36 192.503 58.2533 195.17 63.16C197.837 68.0667 199.17 73.6133 199.17 79.8C199.17 85.7733 197.783 91.2667 195.01 96.28C192.343 101.293 188.183 105.293 182.53 108.28C176.877 111.267 169.623 112.76 160.77 112.76H138.69V159H125.25ZM184.45 159L159.81 108.92H174.85L200.29 159H184.45ZM138.69 102.2H160.45C168.983 102.2 175.223 100.12 179.17 95.96C183.223 91.8 185.25 86.4667 185.25 79.96C185.25 73.3467 183.277 68.12 179.33 64.28C175.49 60.3333 169.143 58.36 160.29 58.36H138.69V102.2ZM212.25 159V47H225.69V159H212.25ZM241.75 159V47H274.71C287.83 47 298.603 49.2933 307.03 53.88C315.563 58.36 321.857 64.8133 325.91 73.24C330.07 81.56 332.15 91.5867 332.15 103.32C332.15 114.84 330.07 124.76 325.91 133.08C321.857 141.4 315.563 147.8 307.03 152.28C298.603 156.76 287.83 159 274.71 159H241.75ZM255.19 147.8H274.39C285.27 147.8 293.91 146.04 300.31 142.52C306.71 138.893 311.297 133.773 314.07 127.16C316.843 120.44 318.23 112.493 318.23 103.32C318.23 93.9333 316.843 85.88 314.07 79.16C311.297 72.44 306.71 67.2667 300.31 63.64C293.91 60.0133 285.27 58.2 274.39 58.2H255.19V147.8ZM343.906 159V47H376.866C389.986 47 400.76 49.2933 409.186 53.88C417.72 58.36 424.013 64.8133 428.066 73.24C432.226 81.56 434.306 91.5867 434.306 103.32C434.306 114.84 432.226 124.76 428.066 133.08C424.013 141.4 417.72 147.8 409.186 152.28C400.76 156.76 389.986 159 376.866 159H343.906ZM357.346 147.8H376.546C387.426 147.8 396.066 146.04 402.466 142.52C408.866 138.893 413.453 133.773 416.226 127.16C419 120.44 420.386 112.493 420.386 103.32C420.386 93.9333 419 85.88 416.226 79.16C413.453 72.44 408.866 67.2667 402.466 63.64C396.066 60.0133 387.426 58.2 376.546 58.2H357.346V147.8ZM446.063 159V47H515.343V58.04H459.503V97.08H510.543V107.96H459.503V147.96H515.343V159H446.063ZM528.531 159V47H561.491C574.611 47 585.385 49.2933 593.811 53.88C602.345 58.36 608.638 64.8133 612.691 73.24C616.851 81.56 618.931 91.5867 618.931 103.32C618.931 114.84 616.851 124.76 612.691 133.08C608.638 141.4 602.345 147.8 593.811 152.28C585.385 156.76 574.611 159 561.491 159H528.531ZM541.971 147.8H561.171C572.051 147.8 580.691 146.04 587.091 142.52C593.491 138.893 598.078 133.773 600.851 127.16C603.625 120.44 605.011 112.493 605.011 103.32C605.011 93.9333 603.625 85.88 600.851 79.16C598.078 72.44 593.491 67.2667 587.091 63.64C580.691 60.0133 572.051 58.2 561.171 58.2H541.971V147.8Z" fill="black"/>
<path d="M132.8 284.64C130.667 284.64 128.875 283.957 127.424 282.592C126.059 281.141 125.376 279.392 125.376 277.344C125.376 275.296 126.059 273.589 127.424 272.224C128.875 270.773 130.667 270.048 132.8 270.048C134.933 270.048 136.683 270.773 138.048 272.224C139.413 273.589 140.096 275.296 140.096 277.344C140.096 279.392 139.413 281.141 138.048 282.592C136.683 283.957 134.933 284.64 132.8 284.64ZM142.815 284L175.839 194.4H187.231L220.127 284H208.735L181.471 207.84L154.079 284H142.815ZM157.919 260.96L160.991 252.256H201.567L204.639 260.96H157.919ZM260.578 285.536C252.215 285.536 244.877 283.616 238.562 279.776C232.247 275.851 227.341 270.432 223.842 263.52C220.343 256.608 218.594 248.544 218.594 239.328C218.594 230.197 220.343 222.133 223.842 215.136C227.426 208.139 232.461 202.677 238.946 198.752C245.517 194.827 253.239 192.864 262.114 192.864C272.183 192.864 280.589 195.296 287.33 200.16C294.071 204.939 298.381 211.637 300.258 220.256H287.842C286.647 214.88 283.831 210.613 279.394 207.456C274.957 204.299 269.197 202.72 262.114 202.72C255.543 202.72 249.783 204.213 244.834 207.2C239.97 210.101 236.215 214.283 233.57 219.744C230.925 225.205 229.602 231.733 229.602 239.328C229.602 246.923 230.925 253.493 233.57 259.04C236.215 264.501 239.885 268.683 244.578 271.584C249.357 274.485 254.818 275.936 260.962 275.936C270.519 275.936 277.73 273.12 282.594 267.488C287.458 261.856 290.231 254.219 290.914 244.576H265.058V236.128H301.922V284H292.066L291.17 269.28C289.037 272.779 286.562 275.765 283.746 278.24C281.015 280.629 277.773 282.464 274.018 283.744C270.263 284.939 265.783 285.536 260.578 285.536ZM312.65 284V194.4H368.074V203.232H323.402V234.464H364.234V243.168H323.402V275.168H368.074V284H312.65ZM378.625 284V194.4H389.377L437.121 266.208V194.4H447.873V284H437.121L389.377 212.192V284H378.625ZM499.637 285.536C490.933 285.536 483.381 283.616 476.981 279.776C470.666 275.851 465.802 270.432 462.389 263.52C458.976 256.523 457.269 248.416 457.269 239.2C457.269 229.984 458.976 221.92 462.389 215.008C465.802 208.011 470.666 202.592 476.981 198.752C483.381 194.827 490.933 192.864 499.637 192.864C509.877 192.864 518.197 195.296 524.597 200.16C530.997 205.024 535.093 211.893 536.885 220.768H524.981C523.616 215.221 520.842 210.784 516.661 207.456C512.48 204.043 506.805 202.336 499.637 202.336C493.237 202.336 487.69 203.829 482.997 206.816C478.304 209.717 474.677 213.941 472.117 219.488C469.557 224.949 468.277 231.52 468.277 239.2C468.277 246.88 469.557 253.493 472.117 259.04C474.677 264.501 478.304 268.725 482.997 271.712C487.69 274.613 493.237 276.064 499.637 276.064C506.805 276.064 512.48 274.443 516.661 271.2C520.842 267.872 523.616 263.477 524.981 258.016H536.885C535.093 266.635 530.997 273.376 524.597 278.24C518.197 283.104 509.877 285.536 499.637 285.536ZM564.219 284V249.952L535.035 194.4H547.195L571.259 242.912H568.059L591.995 194.4H604.027L574.971 249.952V284H564.219Z" fill="black"/>
<line x1="84.8" y1="188" x2="84.8" y2="284" stroke="black" stroke-width="9.6"/>
<line x1="104" y1="208.798" x2="8" y2="208.798" stroke="black" stroke-width="9.6"/>
<line x1="104" y1="264.8" x2="8" y2="264.8" stroke="black" stroke-width="9.6"/>
<line x1="28.7995" y1="188" x2="28.7995" y2="284" stroke="black" stroke-width="9.6"/>
</svg>
