<svg width="1219" height="208" viewBox="0 0 1219 208" fill="none" xmlns="http://www.w3.org/2000/svg">
<path d="M60.16 160.92C49.7067 160.92 40.5333 158.52 32.64 153.72C24.7467 148.813 18.6133 142.04 14.24 133.4C9.86667 124.76 7.68 114.68 7.68 103.16C7.68 91.7467 9.86667 81.6667 14.24 72.92C18.72 64.1733 25.0133 57.3467 33.12 52.44C41.3333 47.5333 50.9867 45.08 62.08 45.08C74.6667 45.08 85.1733 48.12 93.6 54.2C102.027 60.1733 107.413 68.5467 109.76 79.32H94.24C92.7467 72.6 89.2267 67.2667 83.68 63.32C78.1333 59.3733 70.9333 57.4 62.08 57.4C53.8667 57.4 46.6667 59.2667 40.48 63C34.4 66.6267 29.7067 71.8533 26.4 78.68C23.0933 85.5067 21.44 93.6667 21.44 103.16C21.44 112.653 23.0933 120.867 26.4 127.8C29.7067 134.627 34.2933 139.853 40.16 143.48C46.1333 147.107 52.96 148.92 60.64 148.92C72.5867 148.92 81.6 145.4 87.68 138.36C93.76 131.32 97.2267 121.773 98.08 109.72H65.76V99.16H111.84V159H99.52L98.4 140.6C95.7333 144.973 92.64 148.707 89.12 151.8C85.7067 154.787 81.6533 157.08 76.96 158.68C72.2667 160.173 66.6667 160.92 60.16 160.92ZM125.25 159V47H161.41C170.157 47 177.303 48.4933 182.85 51.48C188.397 54.36 192.503 58.2533 195.17 63.16C197.837 68.0667 199.17 73.6133 199.17 79.8C199.17 85.7733 197.783 91.2667 195.01 96.28C192.343 101.293 188.183 105.293 182.53 108.28C176.877 111.267 169.623 112.76 160.77 112.76H138.69V159H125.25ZM184.45 159L159.81 108.92H174.85L200.29 159H184.45ZM138.69 102.2H160.45C168.983 102.2 175.223 100.12 179.17 95.96C183.223 91.8 185.25 86.4667 185.25 79.96C185.25 73.3467 183.277 68.12 179.33 64.28C175.49 60.3333 169.143 58.36 160.29 58.36H138.69V102.2ZM212.25 159V47H225.69V159H212.25ZM241.75 159V47H274.71C287.83 47 298.603 49.2933 307.03 53.88C315.563 58.36 321.857 64.8133 325.91 73.24C330.07 81.56 332.15 91.5867 332.15 103.32C332.15 114.84 330.07 124.76 325.91 133.08C321.857 141.4 315.563 147.8 307.03 152.28C298.603 156.76 287.83 159 274.71 159H241.75ZM255.19 147.8H274.39C285.27 147.8 293.91 146.04 300.31 142.52C306.71 138.893 311.297 133.773 314.07 127.16C316.843 120.44 318.23 112.493 318.23 103.32C318.23 93.9333 316.843 85.88 314.07 79.16C311.297 72.44 306.71 67.2667 300.31 63.64C293.91 60.0133 285.27 58.2 274.39 58.2H255.19V147.8ZM343.906 159V47H376.866C389.986 47 400.76 49.2933 409.186 53.88C417.72 58.36 424.013 64.8133 428.066 73.24C432.226 81.56 434.306 91.5867 434.306 103.32C434.306 114.84 432.226 124.76 428.066 133.08C424.013 141.4 417.72 147.8 409.186 152.28C400.76 156.76 389.986 159 376.866 159H343.906ZM357.346 147.8H376.546C387.426 147.8 396.066 146.04 402.466 142.52C408.866 138.893 413.453 133.773 416.226 127.16C419 120.44 420.386 112.493 420.386 103.32C420.386 93.9333 419 85.88 416.226 79.16C413.453 72.44 408.866 67.2667 402.466 63.64C396.066 60.0133 387.426 58.2 376.546 58.2H357.346V147.8ZM446.063 159V47H515.343V58.04H459.503V97.08H510.543V107.96H459.503V147.96H515.343V159H446.063ZM528.531 159V47H561.491C574.611 47 585.385 49.2933 593.811 53.88C602.345 58.36 608.638 64.8133 612.691 73.24C616.851 81.56 618.931 91.5867 618.931 103.32C618.931 114.84 616.851 124.76 612.691 133.08C608.638 141.4 602.345 147.8 593.811 152.28C585.385 156.76 574.611 159 561.491 159H528.531ZM541.971 147.8H561.171C572.051 147.8 580.691 146.04 587.091 142.52C593.491 138.893 598.078 133.773 600.851 127.16C603.625 120.44 605.011 112.493 605.011 103.32C605.011 93.9333 603.625 85.88 600.851 79.16C598.078 72.44 593.491 67.2667 587.091 63.64C580.691 60.0133 572.051 58.2 561.171 58.2H541.971V147.8Z" fill="#020013"/>
<path d="M626 159.8C623.333 159.8 621.093 158.947 619.28 157.24C617.573 155.427 616.72 153.24 616.72 150.68C616.72 148.12 617.573 145.987 619.28 144.28C621.093 142.467 623.333 141.56 626 141.56C628.667 141.56 630.853 142.467 632.56 144.28C634.267 145.987 635.12 148.12 635.12 150.68C635.12 153.24 634.267 155.427 632.56 157.24C630.853 158.947 628.667 159.8 626 159.8ZM638.519 159L679.799 47H694.039L735.159 159H720.919L686.839 63.8L652.599 159H638.519ZM657.399 130.2L661.239 119.32H711.959L715.799 130.2H657.399ZM785.723 160.92C775.269 160.92 766.096 158.52 758.203 153.72C750.309 148.813 744.176 142.04 739.803 133.4C735.429 124.76 733.243 114.68 733.243 103.16C733.243 91.7467 735.429 81.6667 739.803 72.92C744.283 64.1733 750.576 57.3467 758.683 52.44C766.896 47.5333 776.549 45.08 787.643 45.08C800.229 45.08 810.736 48.12 819.163 54.2C827.589 60.1733 832.976 68.5467 835.323 79.32H819.803C818.309 72.6 814.789 67.2667 809.243 63.32C803.696 59.3733 796.496 57.4 787.643 57.4C779.429 57.4 772.229 59.2667 766.043 63C759.963 66.6267 755.269 71.8533 751.963 78.68C748.656 85.5067 747.003 93.6667 747.003 103.16C747.003 112.653 748.656 120.867 751.963 127.8C755.269 134.627 759.856 139.853 765.723 143.48C771.696 147.107 778.523 148.92 786.203 148.92C798.149 148.92 807.163 145.4 813.243 138.36C819.323 131.32 822.789 121.773 823.643 109.72H791.323V99.16H837.403V159H825.083L823.963 140.6C821.296 144.973 818.203 148.707 814.683 151.8C811.269 154.787 807.216 157.08 802.523 158.68C797.829 160.173 792.229 160.92 785.723 160.92ZM850.813 159V47H920.093V58.04H864.253V97.08H915.293V107.96H864.253V147.96H920.093V159H850.813ZM933.281 159V47H946.721L1006.4 136.76V47H1019.84V159H1006.4L946.721 69.24V159H933.281ZM1084.55 160.92C1073.67 160.92 1064.23 158.52 1056.23 153.72C1048.33 148.813 1042.25 142.04 1037.99 133.4C1033.72 124.653 1031.59 114.52 1031.59 103C1031.59 91.48 1033.72 81.4 1037.99 72.76C1042.25 64.0133 1048.33 57.24 1056.23 52.44C1064.23 47.5333 1073.67 45.08 1084.55 45.08C1097.35 45.08 1107.75 48.12 1115.75 54.2C1123.75 60.28 1128.87 68.8667 1131.11 79.96H1116.23C1114.52 73.0267 1111.05 67.48 1105.83 63.32C1100.6 59.0533 1093.51 56.92 1084.55 56.92C1076.55 56.92 1069.61 58.7867 1063.75 62.52C1057.88 66.1467 1053.35 71.4267 1050.15 78.36C1046.95 85.1867 1045.35 93.4 1045.35 103C1045.35 112.6 1046.95 120.867 1050.15 127.8C1053.35 134.627 1057.88 139.907 1063.75 143.64C1069.61 147.267 1076.55 149.08 1084.55 149.08C1093.51 149.08 1100.6 147.053 1105.83 143C1111.05 138.84 1114.52 133.347 1116.23 126.52H1131.11C1128.87 137.293 1123.75 145.72 1115.75 151.8C1107.75 157.88 1097.35 160.92 1084.55 160.92ZM1165.27 159V116.44L1128.79 47H1143.99L1174.07 107.64H1170.07L1199.99 47H1215.03L1178.71 116.44V159H1165.27Z" fill="#020013"/>
</svg>
