<svg width="1328" height="208" viewBox="0 0 1328 208" fill="none" xmlns="http://www.w3.org/2000/svg">
<path d="M169.16 160.92C158.707 160.92 149.533 158.52 141.64 153.72C133.747 148.813 127.613 142.04 123.24 133.4C118.867 124.76 116.68 114.68 116.68 103.16C116.68 91.7467 118.867 81.6667 123.24 72.92C127.72 64.1733 134.013 57.3467 142.12 52.44C150.333 47.5333 159.987 45.08 171.08 45.08C183.667 45.08 194.173 48.12 202.6 54.2C211.027 60.1733 216.413 68.5467 218.76 79.32H203.24C201.747 72.6 198.227 67.2667 192.68 63.32C187.133 59.3733 179.933 57.4 171.08 57.4C162.867 57.4 155.667 59.2667 149.48 63C143.4 66.6267 138.707 71.8533 135.4 78.68C132.093 85.5067 130.44 93.6667 130.44 103.16C130.44 112.653 132.093 120.867 135.4 127.8C138.707 134.627 143.293 139.853 149.16 143.48C155.133 147.107 161.96 148.92 169.64 148.92C181.587 148.92 190.6 145.4 196.68 138.36C202.76 131.32 206.227 121.773 207.08 109.72H174.76V99.16H220.84V159H208.52L207.4 140.6C204.733 144.973 201.64 148.707 198.12 151.8C194.707 154.787 190.653 157.08 185.96 158.68C181.267 160.173 175.667 160.92 169.16 160.92ZM234.25 159V47H270.41C279.157 47 286.303 48.4933 291.85 51.48C297.397 54.36 301.503 58.2533 304.17 63.16C306.837 68.0667 308.17 73.6133 308.17 79.8C308.17 85.7733 306.783 91.2667 304.01 96.28C301.343 101.293 297.183 105.293 291.53 108.28C285.877 111.267 278.623 112.76 269.77 112.76H247.69V159H234.25ZM293.45 159L268.81 108.92H283.85L309.29 159H293.45ZM247.69 102.2H269.45C277.983 102.2 284.223 100.12 288.17 95.96C292.223 91.8 294.25 86.4667 294.25 79.96C294.25 73.3467 292.277 68.12 288.33 64.28C284.49 60.3333 278.143 58.36 269.29 58.36H247.69V102.2ZM321.25 159V47H334.69V159H321.25ZM350.75 159V47H383.71C396.83 47 407.603 49.2933 416.03 53.88C424.563 58.36 430.857 64.8133 434.91 73.24C439.07 81.56 441.15 91.5867 441.15 103.32C441.15 114.84 439.07 124.76 434.91 133.08C430.857 141.4 424.563 147.8 416.03 152.28C407.603 156.76 396.83 159 383.71 159H350.75ZM364.19 147.8H383.39C394.27 147.8 402.91 146.04 409.31 142.52C415.71 138.893 420.297 133.773 423.07 127.16C425.843 120.44 427.23 112.493 427.23 103.32C427.23 93.9333 425.843 85.88 423.07 79.16C420.297 72.44 415.71 67.2667 409.31 63.64C402.91 60.0133 394.27 58.2 383.39 58.2H364.19V147.8ZM452.906 159V47H485.866C498.986 47 509.76 49.2933 518.186 53.88C526.72 58.36 533.013 64.8133 537.066 73.24C541.226 81.56 543.306 91.5867 543.306 103.32C543.306 114.84 541.226 124.76 537.066 133.08C533.013 141.4 526.72 147.8 518.186 152.28C509.76 156.76 498.986 159 485.866 159H452.906ZM466.346 147.8H485.546C496.426 147.8 505.066 146.04 511.466 142.52C517.866 138.893 522.453 133.773 525.226 127.16C528 120.44 529.386 112.493 529.386 103.32C529.386 93.9333 528 85.88 525.226 79.16C522.453 72.44 517.866 67.2667 511.466 63.64C505.066 60.0133 496.426 58.2 485.546 58.2H466.346V147.8ZM555.063 159V47H624.343V58.04H568.503V97.08H619.543V107.96H568.503V147.96H624.343V159H555.063ZM637.531 159V47H670.491C683.611 47 694.385 49.2933 702.811 53.88C711.345 58.36 717.638 64.8133 721.691 73.24C725.851 81.56 727.931 91.5867 727.931 103.32C727.931 114.84 725.851 124.76 721.691 133.08C717.638 141.4 711.345 147.8 702.811 152.28C694.385 156.76 683.611 159 670.491 159H637.531ZM650.971 147.8H670.171C681.051 147.8 689.691 146.04 696.091 142.52C702.491 138.893 707.078 133.773 709.851 127.16C712.625 120.44 714.011 112.493 714.011 103.32C714.011 93.9333 712.625 85.88 709.851 79.16C707.078 72.44 702.491 67.2667 696.091 63.64C689.691 60.0133 681.051 58.2 670.171 58.2H650.971V147.8Z" fill="#020013"/>
<path d="M735 159.8C732.333 159.8 730.093 158.947 728.28 157.24C726.573 155.427 725.72 153.24 725.72 150.68C725.72 148.12 726.573 145.987 728.28 144.28C730.093 142.467 732.333 141.56 735 141.56C737.667 141.56 739.853 142.467 741.56 144.28C743.267 145.987 744.12 148.12 744.12 150.68C744.12 153.24 743.267 155.427 741.56 157.24C739.853 158.947 737.667 159.8 735 159.8ZM747.519 159L788.799 47H803.039L844.159 159H829.919L795.839 63.8L761.599 159H747.519ZM766.399 130.2L770.239 119.32H820.959L824.799 130.2H766.399ZM894.723 160.92C884.269 160.92 875.096 158.52 867.203 153.72C859.309 148.813 853.176 142.04 848.803 133.4C844.429 124.76 842.243 114.68 842.243 103.16C842.243 91.7467 844.429 81.6667 848.803 72.92C853.283 64.1733 859.576 57.3467 867.683 52.44C875.896 47.5333 885.549 45.08 896.643 45.08C909.229 45.08 919.736 48.12 928.163 54.2C936.589 60.1733 941.976 68.5467 944.323 79.32H928.803C927.309 72.6 923.789 67.2667 918.243 63.32C912.696 59.3733 905.496 57.4 896.643 57.4C888.429 57.4 881.229 59.2667 875.043 63C868.963 66.6267 864.269 71.8533 860.963 78.68C857.656 85.5067 856.003 93.6667 856.003 103.16C856.003 112.653 857.656 120.867 860.963 127.8C864.269 134.627 868.856 139.853 874.723 143.48C880.696 147.107 887.523 148.92 895.203 148.92C907.149 148.92 916.163 145.4 922.243 138.36C928.323 131.32 931.789 121.773 932.643 109.72H900.323V99.16H946.403V159H934.083L932.963 140.6C930.296 144.973 927.203 148.707 923.683 151.8C920.269 154.787 916.216 157.08 911.523 158.68C906.829 160.173 901.229 160.92 894.723 160.92ZM959.813 159V47H1029.09V58.04H973.253V97.08H1024.29V107.96H973.253V147.96H1029.09V159H959.813ZM1042.28 159V47H1055.72L1115.4 136.76V47H1128.84V159H1115.4L1055.72 69.24V159H1042.28ZM1193.55 160.92C1182.67 160.92 1173.23 158.52 1165.23 153.72C1157.33 148.813 1151.25 142.04 1146.99 133.4C1142.72 124.653 1140.59 114.52 1140.59 103C1140.59 91.48 1142.72 81.4 1146.99 72.76C1151.25 64.0133 1157.33 57.24 1165.23 52.44C1173.23 47.5333 1182.67 45.08 1193.55 45.08C1206.35 45.08 1216.75 48.12 1224.75 54.2C1232.75 60.28 1237.87 68.8667 1240.11 79.96H1225.23C1223.52 73.0267 1220.05 67.48 1214.83 63.32C1209.6 59.0533 1202.51 56.92 1193.55 56.92C1185.55 56.92 1178.61 58.7867 1172.75 62.52C1166.88 66.1467 1162.35 71.4267 1159.15 78.36C1155.95 85.1867 1154.35 93.4 1154.35 103C1154.35 112.6 1155.95 120.867 1159.15 127.8C1162.35 134.627 1166.88 139.907 1172.75 143.64C1178.61 147.267 1185.55 149.08 1193.55 149.08C1202.51 149.08 1209.6 147.053 1214.83 143C1220.05 138.84 1223.52 133.347 1225.23 126.52H1240.11C1237.87 137.293 1232.75 145.72 1224.75 151.8C1216.75 157.88 1206.35 160.92 1193.55 160.92ZM1274.27 159V116.44L1237.79 47H1252.99L1283.07 107.64H1279.07L1308.99 47H1324.03L1287.71 116.44V159H1274.27Z" fill="#020013"/>
<line x1="80" y1="59" x2="80" y2="159" stroke="black" stroke-width="10"/>
<line x1="100" y1="80.666" x2="5.58202e-08" y2="80.666" stroke="black" stroke-width="10"/>
<line x1="100" y1="139" x2="5.58202e-08" y2="139" stroke="black" stroke-width="10"/>
<line x1="21.6667" y1="59" x2="21.6667" y2="159" stroke="black" stroke-width="10"/>
</svg>
