<svg width="314" height="147" viewBox="0 0 314 147" fill="none" xmlns="http://www.w3.org/2000/svg">
<path d="M30.08 67.96C24.8533 67.96 20.2667 66.76 16.32 64.36C12.3733 61.9067 9.30667 58.52 7.12 54.2C4.93333 49.88 3.84 44.84 3.84 39.08C3.84 33.3733 4.93333 28.3333 7.12 23.96C9.36 19.5867 12.5067 16.1733 16.56 13.72C20.6667 11.2667 25.4933 10.04 31.04 10.04C37.3333 10.04 42.5867 11.56 46.8 14.6C51.0133 17.5867 53.7067 21.7733 54.88 27.16H47.12C46.3733 23.8 44.6133 21.1333 41.84 19.16C39.0667 17.1867 35.4667 16.2 31.04 16.2C26.9333 16.2 23.3333 17.1333 20.24 19C17.2 20.8133 14.8533 23.4267 13.2 26.84C11.5467 30.2533 10.72 34.3333 10.72 39.08C10.72 43.8267 11.5467 47.9333 13.2 51.4C14.8533 54.8133 17.1467 57.4267 20.08 59.24C23.0667 61.0533 26.48 61.96 30.32 61.96C36.2933 61.96 40.8 60.2 43.84 56.68C46.88 53.16 48.6133 48.3867 49.04 42.36H32.88V37.08H55.92V67H49.76L49.2 57.8C47.8667 59.9867 46.32 61.8533 44.56 63.4C42.8533 64.8933 40.8267 66.04 38.48 66.84C36.1333 67.5867 33.3333 67.96 30.08 67.96ZM62.625 67V11H80.705C85.0783 11 88.6517 11.7467 91.425 13.24C94.1983 14.68 96.2517 16.6267 97.585 19.08C98.9183 21.5333 99.585 24.3067 99.585 27.4C99.585 30.3867 98.8917 33.1333 97.505 35.64C96.1717 38.1467 94.0917 40.1467 91.265 41.64C88.4383 43.1333 84.8117 43.88 80.385 43.88H69.345V67H62.625ZM92.225 67L79.905 41.96H87.425L100.145 67H92.225ZM69.345 38.6H80.225C84.4917 38.6 87.6117 37.56 89.585 35.48C91.6117 33.4 92.625 30.7333 92.625 27.48C92.625 24.1733 91.6383 21.56 89.665 19.64C87.745 17.6667 84.5717 16.68 80.145 16.68H69.345V38.6ZM106.125 67V11H112.845V67H106.125ZM120.875 67V11H137.355C143.915 11 149.302 12.1467 153.515 14.44C157.782 16.68 160.928 19.9067 162.955 24.12C165.035 28.28 166.075 33.2933 166.075 39.16C166.075 44.92 165.035 49.88 162.955 54.04C160.928 58.2 157.782 61.4 153.515 63.64C149.302 65.88 143.915 67 137.355 67H120.875ZM127.595 61.4H137.195C142.635 61.4 146.955 60.52 150.155 58.76C153.355 56.9467 155.648 54.3867 157.035 51.08C158.422 47.72 159.115 43.7467 159.115 39.16C159.115 34.4667 158.422 30.44 157.035 27.08C155.648 23.72 153.355 21.1333 150.155 19.32C146.955 17.5067 142.635 16.6 137.195 16.6H127.595V61.4ZM171.953 67V11H188.433C194.993 11 200.38 12.1467 204.593 14.44C208.86 16.68 212.006 19.9067 214.033 24.12C216.113 28.28 217.153 33.2933 217.153 39.16C217.153 44.92 216.113 49.88 214.033 54.04C212.006 58.2 208.86 61.4 204.593 63.64C200.38 65.88 194.993 67 188.433 67H171.953ZM178.673 61.4H188.273C193.713 61.4 198.033 60.52 201.233 58.76C204.433 56.9467 206.726 54.3867 208.113 51.08C209.5 47.72 210.193 43.7467 210.193 39.16C210.193 34.4667 209.5 30.44 208.113 27.08C206.726 23.72 204.433 21.1333 201.233 19.32C198.033 17.5067 193.713 16.6 188.273 16.6H178.673V61.4ZM223.031 67V11H257.671V16.52H229.751V36.04H255.271V41.48H229.751V61.48H257.671V67H223.031ZM264.266 67V11H280.746C287.306 11 292.692 12.1467 296.906 14.44C301.172 16.68 304.319 19.9067 306.346 24.12C308.426 28.28 309.466 33.2933 309.466 39.16C309.466 44.92 308.426 49.88 306.346 54.04C304.319 58.2 301.172 61.4 296.906 63.64C292.692 65.88 287.306 67 280.746 67H264.266ZM270.986 61.4H280.586C286.026 61.4 290.346 60.52 293.546 58.76C296.746 56.9467 299.039 54.3867 300.426 51.08C301.812 47.72 302.506 43.7467 302.506 39.16C302.506 34.4667 301.812 30.44 300.426 27.08C299.039 23.72 296.746 21.1333 293.546 19.32C290.346 17.5067 286.026 16.6 280.586 16.6H270.986V61.4Z" fill="white"/>
<path d="M66.4 129.32C65.3333 129.32 64.4373 128.979 63.712 128.296C63.0293 127.571 62.688 126.696 62.688 125.672C62.688 124.648 63.0293 123.795 63.712 123.112C64.4373 122.387 65.3333 122.024 66.4 122.024C67.4667 122.024 68.3413 122.387 69.024 123.112C69.7067 123.795 70.048 124.648 70.048 125.672C70.048 126.696 69.7067 127.571 69.024 128.296C68.3413 128.979 67.4667 129.32 66.4 129.32ZM71.4075 129L87.9195 84.2H93.6155L110.064 129H104.368L90.7355 90.92L77.0395 129H71.4075ZM78.9595 117.48L80.4955 113.128H100.784L102.32 117.48H78.9595ZM130.289 129.768C126.108 129.768 122.438 128.808 119.281 126.888C116.124 124.925 113.67 122.216 111.921 118.76C110.172 115.304 109.297 111.272 109.297 106.664C109.297 102.099 110.172 98.0667 111.921 94.568C113.713 91.0693 116.23 88.3387 119.473 86.376C122.758 84.4133 126.62 83.432 131.057 83.432C136.092 83.432 140.294 84.648 143.665 87.08C147.036 89.4693 149.19 92.8187 150.129 97.128H143.921C143.324 94.44 141.916 92.3067 139.697 90.728C137.478 89.1493 134.598 88.36 131.057 88.36C127.772 88.36 124.892 89.1067 122.417 90.6C119.985 92.0507 118.108 94.1413 116.785 96.872C115.462 99.6027 114.801 102.867 114.801 106.664C114.801 110.461 115.462 113.747 116.785 116.52C118.108 119.251 119.942 121.341 122.289 122.792C124.678 124.243 127.409 124.968 130.481 124.968C135.26 124.968 138.865 123.56 141.297 120.744C143.729 117.928 145.116 114.109 145.457 109.288H132.529V105.064H150.961V129H146.033L145.585 121.64C144.518 123.389 143.281 124.883 141.873 126.12C140.508 127.315 138.886 128.232 137.009 128.872C135.132 129.469 132.892 129.768 130.289 129.768ZM156.325 129V84.2H184.037V88.616H161.701V104.232H182.117V108.584H161.701V124.584H184.037V129H156.325ZM189.312 129V84.2H194.688L218.56 120.104V84.2H223.937V129H218.56L194.688 93.096V129H189.312ZM249.819 129.768C245.467 129.768 241.691 128.808 238.491 126.888C235.333 124.925 232.901 122.216 231.195 118.76C229.488 115.261 228.635 111.208 228.635 106.6C228.635 101.992 229.488 97.96 231.195 94.504C232.901 91.0053 235.333 88.296 238.491 86.376C241.691 84.4133 245.467 83.432 249.819 83.432C254.939 83.432 259.099 84.648 262.299 87.08C265.499 89.512 267.547 92.9467 268.443 97.384H262.491C261.808 94.6107 260.421 92.392 258.331 90.728C256.24 89.0213 253.403 88.168 249.819 88.168C246.619 88.168 243.845 88.9147 241.499 90.408C239.152 91.8587 237.339 93.9707 236.059 96.744C234.779 99.4747 234.139 102.76 234.139 106.6C234.139 110.44 234.779 113.747 236.059 116.52C237.339 119.251 239.152 121.363 241.499 122.856C243.845 124.307 246.619 125.032 249.819 125.032C253.403 125.032 256.24 124.221 258.331 122.6C260.421 120.936 261.808 118.739 262.491 116.008H268.443C267.547 120.317 265.499 123.688 262.299 126.12C259.099 128.552 254.939 129.768 249.819 129.768ZM282.11 129V111.976L267.518 84.2H273.598L285.63 108.456H284.03L295.998 84.2H302.014L287.486 111.976V129H282.11Z" fill="url(#paint0_linear_139_155)"/>
<line x1="42.5" y1="81" x2="42.5" y2="129" stroke="url(#paint1_linear_139_155)" stroke-width="5"/>
<line x1="52" y1="91.499" x2="4" y2="91.499" stroke="url(#paint2_linear_139_155)" stroke-width="5"/>
<line x1="52" y1="119.5" x2="4" y2="119.5" stroke="url(#paint3_linear_139_155)" stroke-width="5"/>
<line x1="14.4998" y1="81" x2="14.4998" y2="129" stroke="url(#paint4_linear_139_155)" stroke-width="5"/>
<defs>
<linearGradient id="paint0_linear_139_155" x1="126.703" y1="-42.5554" x2="23.5071" y2="124.45" gradientUnits="userSpaceOnUse">
<stop stop-color="#FF8A5B"/>
<stop offset="1" stop-color="#2600FC"/>
</linearGradient>
<linearGradient id="paint1_linear_139_155" x1="32.5" y1="138" x2="6.95909" y2="127.091" gradientUnits="userSpaceOnUse">
<stop stop-color="#2600FC"/>
<stop offset="1" stop-color="#FF8A5B"/>
</linearGradient>
<linearGradient id="paint2_linear_139_155" x1="-5" y1="81.499" x2="2.60375" y2="60.7719" gradientUnits="userSpaceOnUse">
<stop stop-color="#2600FC"/>
<stop offset="1" stop-color="#FF8A5B"/>
</linearGradient>
<linearGradient id="paint3_linear_139_155" x1="6" y1="119.5" x2="6.65452" y2="103.043" gradientUnits="userSpaceOnUse">
<stop stop-color="#2600FC"/>
<stop offset="1" stop-color="#FF8A5B"/>
</linearGradient>
<linearGradient id="paint4_linear_139_155" x1="8.49976" y1="97" x2="-4.64082" y2="78.9575" gradientUnits="userSpaceOnUse">
<stop stop-color="#2600FC"/>
<stop offset="1" stop-color="#FF8A5B"/>
</linearGradient>
</defs>
</svg>
