<svg width="665" height="80" viewBox="0 0 665 80" fill="none" xmlns="http://www.w3.org/2000/svg">
<path d="M85.08 67.96C79.8533 67.96 75.2667 66.76 71.32 64.36C67.3733 61.9067 64.3067 58.52 62.12 54.2C59.9333 49.88 58.84 44.84 58.84 39.08C58.84 33.3733 59.9333 28.3333 62.12 23.96C64.36 19.5867 67.5067 16.1733 71.56 13.72C75.6667 11.2667 80.4933 10.04 86.04 10.04C92.3333 10.04 97.5867 11.56 101.8 14.6C106.013 17.5867 108.707 21.7733 109.88 27.16H102.12C101.373 23.8 99.6133 21.1333 96.84 19.16C94.0667 17.1867 90.4667 16.2 86.04 16.2C81.9333 16.2 78.3333 17.1333 75.24 19C72.2 20.8133 69.8533 23.4267 68.2 26.84C66.5467 30.2533 65.72 34.3333 65.72 39.08C65.72 43.8267 66.5467 47.9333 68.2 51.4C69.8533 54.8133 72.1467 57.4267 75.08 59.24C78.0667 61.0533 81.48 61.96 85.32 61.96C91.2933 61.96 95.8 60.2 98.84 56.68C101.88 53.16 103.613 48.3867 104.04 42.36H87.88V37.08H110.92V67H104.76L104.2 57.8C102.867 59.9867 101.32 61.8533 99.56 63.4C97.8533 64.8933 95.8267 66.04 93.48 66.84C91.1333 67.5867 88.3333 67.96 85.08 67.96ZM117.625 67V11H135.705C140.078 11 143.652 11.7467 146.425 13.24C149.198 14.68 151.252 16.6267 152.585 19.08C153.918 21.5333 154.585 24.3067 154.585 27.4C154.585 30.3867 153.892 33.1333 152.505 35.64C151.172 38.1467 149.092 40.1467 146.265 41.64C143.438 43.1333 139.812 43.88 135.385 43.88H124.345V67H117.625ZM147.225 67L134.905 41.96H142.425L155.145 67H147.225ZM124.345 38.6H135.225C139.492 38.6 142.612 37.56 144.585 35.48C146.612 33.4 147.625 30.7333 147.625 27.48C147.625 24.1733 146.638 21.56 144.665 19.64C142.745 17.6667 139.572 16.68 135.145 16.68H124.345V38.6ZM161.125 67V11H167.845V67H161.125ZM175.875 67V11H192.355C198.915 11 204.302 12.1467 208.515 14.44C212.782 16.68 215.928 19.9067 217.955 24.12C220.035 28.28 221.075 33.2933 221.075 39.16C221.075 44.92 220.035 49.88 217.955 54.04C215.928 58.2 212.782 61.4 208.515 63.64C204.302 65.88 198.915 67 192.355 67H175.875ZM182.595 61.4H192.195C197.635 61.4 201.955 60.52 205.155 58.76C208.355 56.9467 210.648 54.3867 212.035 51.08C213.422 47.72 214.115 43.7467 214.115 39.16C214.115 34.4667 213.422 30.44 212.035 27.08C210.648 23.72 208.355 21.1333 205.155 19.32C201.955 17.5067 197.635 16.6 192.195 16.6H182.595V61.4ZM226.953 67V11H243.433C249.993 11 255.38 12.1467 259.593 14.44C263.86 16.68 267.006 19.9067 269.033 24.12C271.113 28.28 272.153 33.2933 272.153 39.16C272.153 44.92 271.113 49.88 269.033 54.04C267.006 58.2 263.86 61.4 259.593 63.64C255.38 65.88 249.993 67 243.433 67H226.953ZM233.673 61.4H243.273C248.713 61.4 253.033 60.52 256.233 58.76C259.433 56.9467 261.726 54.3867 263.113 51.08C264.5 47.72 265.193 43.7467 265.193 39.16C265.193 34.4667 264.5 30.44 263.113 27.08C261.726 23.72 259.433 21.1333 256.233 19.32C253.033 17.5067 248.713 16.6 243.273 16.6H233.673V61.4ZM278.031 67V11H312.671V16.52H284.751V36.04H310.271V41.48H284.751V61.48H312.671V67H278.031ZM319.266 67V11H335.746C342.306 11 347.692 12.1467 351.906 14.44C356.172 16.68 359.319 19.9067 361.346 24.12C363.426 28.28 364.466 33.2933 364.466 39.16C364.466 44.92 363.426 49.88 361.346 54.04C359.319 58.2 356.172 61.4 351.906 63.64C347.692 65.88 342.306 67 335.746 67H319.266ZM325.986 61.4H335.586C341.026 61.4 345.346 60.52 348.546 58.76C351.746 56.9467 354.039 54.3867 355.426 51.08C356.812 47.72 357.506 43.7467 357.506 39.16C357.506 34.4667 356.812 30.44 355.426 27.08C354.039 23.72 351.746 21.1333 348.546 19.32C345.346 17.5067 341.026 16.6 335.586 16.6H325.986V61.4Z" fill="white"/>
<path d="M368 67.4C366.667 67.4 365.547 66.9733 364.64 66.12C363.787 65.2133 363.36 64.12 363.36 62.84C363.36 61.56 363.787 60.4933 364.64 59.64C365.547 58.7333 366.667 58.28 368 58.28C369.333 58.28 370.427 58.7333 371.28 59.64C372.133 60.4933 372.56 61.56 372.56 62.84C372.56 64.12 372.133 65.2133 371.28 66.12C370.427 66.9733 369.333 67.4 368 67.4ZM374.259 67L394.899 11H402.019L422.579 67H415.459L398.419 19.4L381.299 67H374.259ZM383.699 52.6L385.619 47.16H410.979L412.899 52.6H383.699ZM447.861 67.96C442.635 67.96 438.048 66.76 434.101 64.36C430.155 61.9067 427.088 58.52 424.901 54.2C422.715 49.88 421.621 44.84 421.621 39.08C421.621 33.3733 422.715 28.3333 424.901 23.96C427.141 19.5867 430.288 16.1733 434.341 13.72C438.448 11.2667 443.275 10.04 448.821 10.04C455.115 10.04 460.368 11.56 464.581 14.6C468.795 17.5867 471.488 21.7733 472.661 27.16H464.901C464.155 23.8 462.395 21.1333 459.621 19.16C456.848 17.1867 453.248 16.2 448.821 16.2C444.715 16.2 441.115 17.1333 438.021 19C434.981 20.8133 432.635 23.4267 430.981 26.84C429.328 30.2533 428.501 34.3333 428.501 39.08C428.501 43.8267 429.328 47.9333 430.981 51.4C432.635 54.8133 434.928 57.4267 437.861 59.24C440.848 61.0533 444.261 61.96 448.101 61.96C454.075 61.96 458.581 60.2 461.621 56.68C464.661 53.16 466.395 48.3867 466.821 42.36H450.661V37.08H473.701V67H467.541L466.981 57.8C465.648 59.9867 464.101 61.8533 462.341 63.4C460.635 64.8933 458.608 66.04 456.261 66.84C453.915 67.5867 451.115 67.96 447.861 67.96ZM480.406 67V11H515.046V16.52H487.126V36.04H512.646V41.48H487.126V61.48H515.046V67H480.406ZM521.641 67V11H528.361L558.201 55.88V11H564.921V67H558.201L528.361 22.12V67H521.641ZM597.273 67.96C591.833 67.96 587.113 66.76 583.113 64.36C579.166 61.9067 576.126 58.52 573.993 54.2C571.86 49.8267 570.793 44.76 570.793 39C570.793 33.24 571.86 28.2 573.993 23.88C576.126 19.5067 579.166 16.12 583.113 13.72C587.113 11.2667 591.833 10.04 597.273 10.04C603.673 10.04 608.873 11.56 612.873 14.6C616.873 17.64 619.433 21.9333 620.553 27.48H613.113C612.26 24.0133 610.526 21.24 607.913 19.16C605.3 17.0267 601.753 15.96 597.273 15.96C593.273 15.96 589.806 16.8933 586.873 18.76C583.94 20.5733 581.673 23.2133 580.073 26.68C578.473 30.0933 577.673 34.2 577.673 39C577.673 43.8 578.473 47.9333 580.073 51.4C581.673 54.8133 583.94 57.4533 586.873 59.32C589.806 61.1333 593.273 62.04 597.273 62.04C601.753 62.04 605.3 61.0267 607.913 59C610.526 56.92 612.26 54.1733 613.113 50.76H620.553C619.433 56.1467 616.873 60.36 612.873 63.4C608.873 66.44 603.673 67.96 597.273 67.96ZM637.637 67V45.72L619.397 11H626.997L642.037 41.32H640.037L654.997 11H662.517L644.357 45.72V67H637.637Z" fill="url(#paint0_linear_138_145)"/>
<line x1="40" y1="17" x2="40" y2="67" stroke="url(#paint1_linear_138_145)" stroke-width="5"/>
<line x1="50" y1="27.833" x2="2.79101e-08" y2="27.833" stroke="url(#paint2_linear_138_145)" stroke-width="5"/>
<line x1="50" y1="57" x2="2.79101e-08" y2="57" stroke="url(#paint3_linear_138_145)" stroke-width="5"/>
<line x1="10.8333" y1="17" x2="10.8332" y2="67" stroke="url(#paint4_linear_138_145)" stroke-width="5"/>
<defs>
<linearGradient id="paint0_linear_138_145" x1="443.379" y1="-109.555" x2="351.703" y2="75.8983" gradientUnits="userSpaceOnUse">
<stop stop-color="#FF8A5B"/>
<stop offset="1" stop-color="#2600FC"/>
</linearGradient>
<linearGradient id="paint1_linear_138_145" x1="30" y1="76.375" x2="4.14639" y2="65.7745" gradientUnits="userSpaceOnUse">
<stop stop-color="#2600FC"/>
<stop offset="1" stop-color="#FF8A5B"/>
</linearGradient>
<linearGradient id="paint2_linear_138_145" x1="-9.375" y1="17.833" x2="-2.00688" y2="-3.08866" gradientUnits="userSpaceOnUse">
<stop stop-color="#2600FC"/>
<stop offset="1" stop-color="#FF8A5B"/>
</linearGradient>
<linearGradient id="paint3_linear_138_145" x1="2.08333" y1="57" x2="2.71175" y2="40.5411" gradientUnits="userSpaceOnUse">
<stop stop-color="#2600FC"/>
<stop offset="1" stop-color="#FF8A5B"/>
</linearGradient>
<linearGradient id="paint4_linear_138_145" x1="4.83325" y1="33.6667" x2="-9.01683" y2="15.4107" gradientUnits="userSpaceOnUse">
<stop stop-color="#2600FC"/>
<stop offset="1" stop-color="#FF8A5B"/>
</linearGradient>
</defs>
</svg>
